<svg id="Layer_1" data-name="Layer 1" xmlns="http://www.w3.org/2000/svg" viewBox="0 0 432 89.42"><title>altama-energy-2018-SVG</title><path d="M504,372.07l-22.47,56.35H466.78L504,339l37.11,89.42H526.47Z" transform="translate(-466.78 -339)"/><path d="M602.23,428.42H553.14v-85.5H566.5v73.4h35.73Z" transform="translate(-466.78 -339)"/><path d="M657.12,354.9H633.61v73.52H620.13V354.9H596.62v-12h60.5Z" transform="translate(-466.78 -339)"/><polygon points="235.05 45.75 216.07 0 178.86 89.42 193.6 89.42 216.07 33.07 222.44 49.03 235.05 45.75"/><polygon points="224.94 55.3 238.54 89.42 253.18 89.42 237.65 52 224.94 55.3"/><path d="M722.22,382.94,640,404.23l79.56-29.81a4.47,4.47,0,0,1,3.14,8.38A3.88,3.88,0,0,1,722.22,382.94Z" transform="translate(-466.78 -339)"/><path d="M682.86,372.07l-22.47,56.35H645.64L682.86,339Z" transform="translate(-466.78 -339)"/><path d="M799,428.42V383l-26.74,39.87L745.37,383v45.4H732V339l40.21,59.92L812.43,339v89.42Z" transform="translate(-466.78 -339)"/><path d="M861.68,372.07l-22.47,56.35H824.46L861.68,339l37.1,89.42H884.15Z" transform="translate(-466.78 -339)"/></svg>